<svg id="canvas" height="auto" xmlns="http://www.w3.org/3000/svg" version="1.1" xmlns:xlink="http://www.w3.org/1999/xlink" viewBox="0 0 2560 1600" width="auto" style="width: auto; height: auto;"><rect width="2560" height="1600" fill="#000000"/><line x1="0" y1="0" x2="134.73684210526315" y2="134.73684210526315" stroke-linecap="square" stroke-width="4" stroke="#7000ff"/><line x1="134.73684210526315" y1="134.73684210526315" x2="269.4736842105263" y2="0" stroke-linecap="square" stroke-width="4" stroke="#780eff"/><line x1="269.4736842105263" y1="0" x2="404.2105263157895" y2="134.73684210526315" stroke-linecap="square" stroke-width="4" stroke="#801cff"/><line x1="404.2105263157895" y1="0" x2="538.9473684210526" y2="134.73684210526315" stroke-linecap="square" stroke-width="4" stroke="#882bff"/><line x1="538.9473684210526" y1="134.73684210526315" x2="673.6842105263157" y2="0" stroke-linecap="square" stroke-width="4" stroke="#9039ff"/><line x1="673.6842105263157" y1="134.73684210526315" x2="808.4210526315788" y2="0" stroke-linecap="square" stroke-width="4" stroke="#9847ff"/><line x1="808.4210526315788" y1="134.73684210526315" x2="943.157894736842" y2="0" stroke-linecap="square" stroke-width="4" stroke="#a055ff"/><line x1="943.157894736842" y1="0" x2="1077.8947368421052" y2="134.73684210526315" stroke-linecap="square" stroke-width="4" stroke="#a863ff"/><line x1="1077.8947368421052" y1="0" x2="1212.6315789473683" y2="134.73684210526315" stroke-linecap="square" stroke-width="4" stroke="#b071ff"/><line x1="1212.6315789473683" y1="134.73684210526315" x2="1347.3684210526314" y2="0" stroke-linecap="square" stroke-width="4" stroke="#b880ff"/><line x1="1347.3684210526314" y1="0" x2="1482.1052631578946" y2="134.73684210526315" stroke-linecap="square" stroke-width="4" stroke="#bf8eff"/><line x1="1482.1052631578946" y1="0" x2="1616.8421052631577" y2="134.73684210526315" stroke-linecap="square" stroke-width="4" stroke="#c79cff"/><line x1="1616.8421052631577" y1="134.73684210526315" x2="1751.5789473684208" y2="0" stroke-linecap="square" stroke-width="4" stroke="#cfaaff"/><line x1="1751.5789473684208" y1="134.73684210526315" x2="1886.315789473684" y2="0" stroke-linecap="square" stroke-width="4" stroke="#d7b8ff"/><line x1="1886.315789473684" y1="134.73684210526315" x2="2021.052631578947" y2="0" stroke-linecap="square" stroke-width="4" stroke="#dfc6ff"/><line x1="2021.052631578947" y1="0" x2="2155.7894736842104" y2="134.73684210526315" stroke-linecap="square" stroke-width="4" stroke="#e7d5ff"/><line x1="2155.7894736842104" y1="0" x2="2290.5263157894738" y2="134.73684210526315" stroke-linecap="square" stroke-width="4" stroke="#efe3ff"/><line x1="2290.5263157894738" y1="0" x2="2425.263157894737" y2="134.73684210526315" stroke-linecap="square" stroke-width="4" stroke="#f7f1ff"/><line x1="2425.263157894737" y1="134.73684210526315" x2="2560.0000000000005" y2="0" stroke-linecap="square" stroke-width="4" stroke="#ffffff"/><line x1="0" y1="269.4736842105263" x2="134.73684210526315" y2="134.73684210526315" stroke-linecap="square" stroke-width="4" stroke="#7000ff"/><line x1="134.73684210526315" y1="269.4736842105263" x2="269.4736842105263" y2="134.73684210526315" stroke-linecap="square" stroke-width="4" stroke="#780eff"/><line x1="269.4736842105263" y1="134.73684210526315" x2="404.2105263157895" y2="269.4736842105263" stroke-linecap="square" stroke-width="4" stroke="#801cff"/><line x1="404.2105263157895" y1="134.73684210526315" x2="538.9473684210526" y2="269.4736842105263" stroke-linecap="square" stroke-width="4" stroke="#882bff"/><line x1="538.9473684210526" y1="134.73684210526315" x2="673.6842105263157" y2="269.4736842105263" stroke-linecap="square" stroke-width="4" stroke="#9039ff"/><line x1="673.6842105263157" y1="269.4736842105263" x2="808.4210526315788" y2="134.73684210526315" stroke-linecap="square" stroke-width="4" stroke="#9847ff"/><line x1="808.4210526315788" y1="134.73684210526315" x2="943.157894736842" y2="269.4736842105263" stroke-linecap="square" stroke-width="4" stroke="#a055ff"/><line x1="943.157894736842" y1="269.4736842105263" x2="1077.8947368421052" y2="134.73684210526315" stroke-linecap="square" stroke-width="4" stroke="#a863ff"/><line x1="1077.8947368421052" y1="134.73684210526315" x2="1212.6315789473683" y2="269.4736842105263" stroke-linecap="square" stroke-width="4" stroke="#b071ff"/><line x1="1212.6315789473683" y1="269.4736842105263" x2="1347.3684210526314" y2="134.73684210526315" stroke-linecap="square" stroke-width="4" stroke="#b880ff"/><line x1="1347.3684210526314" y1="134.73684210526315" x2="1482.1052631578946" y2="269.4736842105263" stroke-linecap="square" stroke-width="4" stroke="#bf8eff"/><line x1="1482.1052631578946" y1="134.73684210526315" x2="1616.8421052631577" y2="269.4736842105263" stroke-linecap="square" stroke-width="4" stroke="#c79cff"/><line x1="1616.8421052631577" y1="134.73684210526315" x2="1751.5789473684208" y2="269.4736842105263" stroke-linecap="square" stroke-width="4" stroke="#cfaaff"/><line x1="1751.5789473684208" y1="134.73684210526315" x2="1886.315789473684" y2="269.4736842105263" stroke-linecap="square" stroke-width="4" stroke="#d7b8ff"/><line x1="1886.315789473684" y1="269.4736842105263" x2="2021.052631578947" y2="134.73684210526315" stroke-linecap="square" stroke-width="4" stroke="#dfc6ff"/><line x1="2021.052631578947" y1="134.73684210526315" x2="2155.7894736842104" y2="269.4736842105263" stroke-linecap="square" stroke-width="4" stroke="#e7d5ff"/><line x1="2155.7894736842104" y1="134.73684210526315" x2="2290.5263157894738" y2="269.4736842105263" stroke-linecap="square" stroke-width="4" stroke="#efe3ff"/><line x1="2290.5263157894738" y1="269.4736842105263" x2="2425.263157894737" y2="134.73684210526315" stroke-linecap="square" stroke-width="4" stroke="#f7f1ff"/><line x1="2425.263157894737" y1="269.4736842105263" x2="2560.0000000000005" y2="134.73684210526315" stroke-linecap="square" stroke-width="4" stroke="#ffffff"/><line x1="0" y1="404.2105263157895" x2="134.73684210526315" y2="269.4736842105263" stroke-linecap="square" stroke-width="4" stroke="#7000ff"/><line x1="134.73684210526315" y1="269.4736842105263" x2="269.4736842105263" y2="404.2105263157895" stroke-linecap="square" stroke-width="4" stroke="#780eff"/><line x1="269.4736842105263" y1="269.4736842105263" x2="404.2105263157895" y2="404.2105263157895" stroke-linecap="square" stroke-width="4" stroke="#801cff"/><line x1="404.2105263157895" y1="269.4736842105263" x2="538.9473684210526" y2="404.2105263157895" stroke-linecap="square" stroke-width="4" stroke="#882bff"/><line x1="538.9473684210526" y1="269.4736842105263" x2="673.6842105263157" y2="404.2105263157895" stroke-linecap="square" stroke-width="4" stroke="#9039ff"/><line x1="673.6842105263157" y1="404.2105263157895" x2="808.4210526315788" y2="269.4736842105263" stroke-linecap="square" stroke-width="4" stroke="#9847ff"/><line x1="808.4210526315788" y1="269.4736842105263" x2="943.157894736842" y2="404.2105263157895" stroke-linecap="square" stroke-width="4" stroke="#a055ff"/><line x1="943.157894736842" y1="404.2105263157895" x2="1077.8947368421052" y2="269.4736842105263" stroke-linecap="square" stroke-width="4" stroke="#a863ff"/><line x1="1077.8947368421052" y1="404.2105263157895" x2="1212.6315789473683" y2="269.4736842105263" stroke-linecap="square" stroke-width="4" stroke="#b071ff"/><line x1="1212.6315789473683" y1="404.2105263157895" x2="1347.3684210526314" y2="269.4736842105263" stroke-linecap="square" stroke-width="4" stroke="#b880ff"/><line x1="1347.3684210526314" y1="269.4736842105263" x2="1482.1052631578946" y2="404.2105263157895" stroke-linecap="square" stroke-width="4" stroke="#bf8eff"/><line x1="1482.1052631578946" y1="269.4736842105263" x2="1616.8421052631577" y2="404.2105263157895" stroke-linecap="square" stroke-width="4" stroke="#c79cff"/><line x1="1616.8421052631577" y1="269.4736842105263" x2="1751.5789473684208" y2="404.2105263157895" stroke-linecap="square" stroke-width="4" stroke="#cfaaff"/><line x1="1751.5789473684208" y1="404.2105263157895" x2="1886.315789473684" y2="269.4736842105263" stroke-linecap="square" stroke-width="4" stroke="#d7b8ff"/><line x1="1886.315789473684" y1="269.4736842105263" x2="2021.052631578947" y2="404.2105263157895" stroke-linecap="square" stroke-width="4" stroke="#dfc6ff"/><line x1="2021.052631578947" y1="269.4736842105263" x2="2155.7894736842104" y2="404.2105263157895" stroke-linecap="square" stroke-width="4" stroke="#e7d5ff"/><line x1="2155.7894736842104" y1="404.2105263157895" x2="2290.5263157894738" y2="269.4736842105263" stroke-linecap="square" stroke-width="4" stroke="#efe3ff"/><line x1="2290.5263157894738" y1="269.4736842105263" x2="2425.263157894737" y2="404.2105263157895" stroke-linecap="square" stroke-width="4" stroke="#f7f1ff"/><line x1="2425.263157894737" y1="269.4736842105263" x2="2560.0000000000005" y2="404.2105263157895" stroke-linecap="square" stroke-width="4" stroke="#ffffff"/><line x1="0" y1="538.9473684210526" x2="134.73684210526315" y2="404.2105263157895" stroke-linecap="square" stroke-width="4" stroke="#7000ff"/><line x1="134.73684210526315" y1="538.9473684210526" x2="269.4736842105263" y2="404.2105263157895" stroke-linecap="square" stroke-width="4" stroke="#780eff"/><line x1="269.4736842105263" y1="404.2105263157895" x2="404.2105263157895" y2="538.9473684210526" stroke-linecap="square" stroke-width="4" stroke="#801cff"/><line x1="404.2105263157895" y1="538.9473684210526" x2="538.9473684210526" y2="404.2105263157895" stroke-linecap="square" stroke-width="4" stroke="#882bff"/><line x1="538.9473684210526" y1="538.9473684210526" x2="673.6842105263157" y2="404.2105263157895" stroke-linecap="square" stroke-width="4" stroke="#9039ff"/><line x1="673.6842105263157" y1="404.2105263157895" x2="808.4210526315788" y2="538.9473684210526" stroke-linecap="square" stroke-width="4" stroke="#9847ff"/><line x1="808.4210526315788" y1="538.9473684210526" x2="943.157894736842" y2="404.2105263157895" stroke-linecap="square" stroke-width="4" stroke="#a055ff"/><line x1="943.157894736842" y1="404.2105263157895" x2="1077.8947368421052" y2="538.9473684210526" stroke-linecap="square" stroke-width="4" stroke="#a863ff"/><line x1="1077.8947368421052" y1="538.9473684210526" x2="1212.6315789473683" y2="404.2105263157895" stroke-linecap="square" stroke-width="4" stroke="#b071ff"/><line x1="1212.6315789473683" y1="538.9473684210526" x2="1347.3684210526314" y2="404.2105263157895" stroke-linecap="square" stroke-width="4" stroke="#b880ff"/><line x1="1347.3684210526314" y1="404.2105263157895" x2="1482.1052631578946" y2="538.9473684210526" stroke-linecap="square" stroke-width="4" stroke="#bf8eff"/><line x1="1482.1052631578946" y1="404.2105263157895" x2="1616.8421052631577" y2="538.9473684210526" stroke-linecap="square" stroke-width="4" stroke="#c79cff"/><line x1="1616.8421052631577" y1="404.2105263157895" x2="1751.5789473684208" y2="538.9473684210526" stroke-linecap="square" stroke-width="4" stroke="#cfaaff"/><line x1="1751.5789473684208" y1="404.2105263157895" x2="1886.315789473684" y2="538.9473684210526" stroke-linecap="square" stroke-width="4" stroke="#d7b8ff"/><line x1="1886.315789473684" y1="404.2105263157895" x2="2021.052631578947" y2="538.9473684210526" stroke-linecap="square" stroke-width="4" stroke="#dfc6ff"/><line x1="2021.052631578947" y1="538.9473684210526" x2="2155.7894736842104" y2="404.2105263157895" stroke-linecap="square" stroke-width="4" stroke="#e7d5ff"/><line x1="2155.7894736842104" y1="538.9473684210526" x2="2290.5263157894738" y2="404.2105263157895" stroke-linecap="square" stroke-width="4" stroke="#efe3ff"/><line x1="2290.5263157894738" y1="538.9473684210526" x2="2425.263157894737" y2="404.2105263157895" stroke-linecap="square" stroke-width="4" stroke="#f7f1ff"/><line x1="2425.263157894737" y1="404.2105263157895" x2="2560.0000000000005" y2="538.9473684210526" stroke-linecap="square" stroke-width="4" stroke="#ffffff"/><line x1="0" y1="673.6842105263157" x2="134.73684210526315" y2="538.9473684210526" stroke-linecap="square" stroke-width="4" stroke="#7000ff"/><line x1="134.73684210526315" y1="673.6842105263157" x2="269.4736842105263" y2="538.9473684210526" stroke-linecap="square" stroke-width="4" stroke="#780eff"/><line x1="269.4736842105263" y1="673.6842105263157" x2="404.2105263157895" y2="538.9473684210526" stroke-linecap="square" stroke-width="4" stroke="#801cff"/><line x1="404.2105263157895" y1="673.6842105263157" x2="538.9473684210526" y2="538.9473684210526" stroke-linecap="square" stroke-width="4" stroke="#882bff"/><line x1="538.9473684210526" y1="538.9473684210526" x2="673.6842105263157" y2="673.6842105263157" stroke-linecap="square" stroke-width="4" stroke="#9039ff"/><line x1="673.6842105263157" y1="538.9473684210526" x2="808.4210526315788" y2="673.6842105263157" stroke-linecap="square" stroke-width="4" stroke="#9847ff"/><line x1="808.4210526315788" y1="538.9473684210526" x2="943.157894736842" y2="673.6842105263157" stroke-linecap="square" stroke-width="4" stroke="#a055ff"/><line x1="943.157894736842" y1="538.9473684210526" x2="1077.8947368421052" y2="673.6842105263157" stroke-linecap="square" stroke-width="4" stroke="#a863ff"/><line x1="1077.8947368421052" y1="673.6842105263157" x2="1212.6315789473683" y2="538.9473684210526" stroke-linecap="square" stroke-width="4" stroke="#b071ff"/><line x1="1212.6315789473683" y1="673.6842105263157" x2="1347.3684210526314" y2="538.9473684210526" stroke-linecap="square" stroke-width="4" stroke="#b880ff"/><line x1="1347.3684210526314" y1="538.9473684210526" x2="1482.1052631578946" y2="673.6842105263157" stroke-linecap="square" stroke-width="4" stroke="#bf8eff"/><line x1="1482.1052631578946" y1="538.9473684210526" x2="1616.8421052631577" y2="673.6842105263157" stroke-linecap="square" stroke-width="4" stroke="#c79cff"/><line x1="1616.8421052631577" y1="673.6842105263157" x2="1751.5789473684208" y2="538.9473684210526" stroke-linecap="square" stroke-width="4" stroke="#cfaaff"/><line x1="1751.5789473684208" y1="673.6842105263157" x2="1886.315789473684" y2="538.9473684210526" stroke-linecap="square" stroke-width="4" stroke="#d7b8ff"/><line x1="1886.315789473684" y1="673.6842105263157" x2="2021.052631578947" y2="538.9473684210526" stroke-linecap="square" stroke-width="4" stroke="#dfc6ff"/><line x1="2021.052631578947" y1="538.9473684210526" x2="2155.7894736842104" y2="673.6842105263157" stroke-linecap="square" stroke-width="4" stroke="#e7d5ff"/><line x1="2155.7894736842104" y1="673.6842105263157" x2="2290.5263157894738" y2="538.9473684210526" stroke-linecap="square" stroke-width="4" stroke="#efe3ff"/><line x1="2290.5263157894738" y1="673.6842105263157" x2="2425.263157894737" y2="538.9473684210526" stroke-linecap="square" stroke-width="4" stroke="#f7f1ff"/><line x1="2425.263157894737" y1="538.9473684210526" x2="2560.0000000000005" y2="673.6842105263157" stroke-linecap="square" stroke-width="4" stroke="#ffffff"/><line x1="0" y1="808.4210526315788" x2="134.73684210526315" y2="673.6842105263157" stroke-linecap="square" stroke-width="4" stroke="#7000ff"/><line x1="134.73684210526315" y1="673.6842105263157" x2="269.4736842105263" y2="808.4210526315788" stroke-linecap="square" stroke-width="4" stroke="#780eff"/><line x1="269.4736842105263" y1="808.4210526315788" x2="404.2105263157895" y2="673.6842105263157" stroke-linecap="square" stroke-width="4" stroke="#801cff"/><line x1="404.2105263157895" y1="673.6842105263157" x2="538.9473684210526" y2="808.4210526315788" stroke-linecap="square" stroke-width="4" stroke="#882bff"/><line x1="538.9473684210526" y1="808.4210526315788" x2="673.6842105263157" y2="673.6842105263157" stroke-linecap="square" stroke-width="4" stroke="#9039ff"/><line x1="673.6842105263157" y1="673.6842105263157" x2="808.4210526315788" y2="808.4210526315788" stroke-linecap="square" stroke-width="4" stroke="#9847ff"/><line x1="808.4210526315788" y1="808.4210526315788" x2="943.157894736842" y2="673.6842105263157" stroke-linecap="square" stroke-width="4" stroke="#a055ff"/><line x1="943.157894736842" y1="673.6842105263157" x2="1077.8947368421052" y2="808.4210526315788" stroke-linecap="square" stroke-width="4" stroke="#a863ff"/><line x1="1077.8947368421052" y1="808.4210526315788" x2="1212.6315789473683" y2="673.6842105263157" stroke-linecap="square" stroke-width="4" stroke="#b071ff"/><line x1="1212.6315789473683" y1="808.4210526315788" x2="1347.3684210526314" y2="673.6842105263157" stroke-linecap="square" stroke-width="4" stroke="#b880ff"/><line x1="1347.3684210526314" y1="808.4210526315788" x2="1482.1052631578946" y2="673.6842105263157" stroke-linecap="square" stroke-width="4" stroke="#bf8eff"/><line x1="1482.1052631578946" y1="808.4210526315788" x2="1616.8421052631577" y2="673.6842105263157" stroke-linecap="square" stroke-width="4" stroke="#c79cff"/><line x1="1616.8421052631577" y1="808.4210526315788" x2="1751.5789473684208" y2="673.6842105263157" stroke-linecap="square" stroke-width="4" stroke="#cfaaff"/><line x1="1751.5789473684208" y1="808.4210526315788" x2="1886.315789473684" y2="673.6842105263157" stroke-linecap="square" stroke-width="4" stroke="#d7b8ff"/><line x1="1886.315789473684" y1="673.6842105263157" x2="2021.052631578947" y2="808.4210526315788" stroke-linecap="square" stroke-width="4" stroke="#dfc6ff"/><line x1="2021.052631578947" y1="808.4210526315788" x2="2155.7894736842104" y2="673.6842105263157" stroke-linecap="square" stroke-width="4" stroke="#e7d5ff"/><line x1="2155.7894736842104" y1="808.4210526315788" x2="2290.5263157894738" y2="673.6842105263157" stroke-linecap="square" stroke-width="4" stroke="#efe3ff"/><line x1="2290.5263157894738" y1="808.4210526315788" x2="2425.263157894737" y2="673.6842105263157" stroke-linecap="square" stroke-width="4" stroke="#f7f1ff"/><line x1="2425.263157894737" y1="808.4210526315788" x2="2560.0000000000005" y2="673.6842105263157" stroke-linecap="square" stroke-width="4" stroke="#ffffff"/><line x1="0" y1="808.4210526315788" x2="134.73684210526315" y2="943.157894736842" stroke-linecap="square" stroke-width="4" stroke="#7000ff"/><line x1="134.73684210526315" y1="808.4210526315788" x2="269.4736842105263" y2="943.157894736842" stroke-linecap="square" stroke-width="4" stroke="#780eff"/><line x1="269.4736842105263" y1="943.157894736842" x2="404.2105263157895" y2="808.4210526315788" stroke-linecap="square" stroke-width="4" stroke="#801cff"/><line x1="404.2105263157895" y1="943.157894736842" x2="538.9473684210526" y2="808.4210526315788" stroke-linecap="square" stroke-width="4" stroke="#882bff"/><line x1="538.9473684210526" y1="808.4210526315788" x2="673.6842105263157" y2="943.157894736842" stroke-linecap="square" stroke-width="4" stroke="#9039ff"/><line x1="673.6842105263157" y1="943.157894736842" x2="808.4210526315788" y2="808.4210526315788" stroke-linecap="square" stroke-width="4" stroke="#9847ff"/><line x1="808.4210526315788" y1="943.157894736842" x2="943.157894736842" y2="808.4210526315788" stroke-linecap="square" stroke-width="4" stroke="#a055ff"/><line x1="943.157894736842" y1="943.157894736842" x2="1077.8947368421052" y2="808.4210526315788" stroke-linecap="square" stroke-width="4" stroke="#a863ff"/><line x1="1077.8947368421052" y1="943.157894736842" x2="1212.6315789473683" y2="808.4210526315788" stroke-linecap="square" stroke-width="4" stroke="#b071ff"/><line x1="1212.6315789473683" y1="943.157894736842" x2="1347.3684210526314" y2="808.4210526315788" stroke-linecap="square" stroke-width="4" stroke="#b880ff"/><line x1="1347.3684210526314" y1="808.4210526315788" x2="1482.1052631578946" y2="943.157894736842" stroke-linecap="square" stroke-width="4" stroke="#bf8eff"/><line x1="1482.1052631578946" y1="943.157894736842" x2="1616.8421052631577" y2="808.4210526315788" stroke-linecap="square" stroke-width="4" stroke="#c79cff"/><line x1="1616.8421052631577" y1="808.4210526315788" x2="1751.5789473684208" y2="943.157894736842" stroke-linecap="square" stroke-width="4" stroke="#cfaaff"/><line x1="1751.5789473684208" y1="943.157894736842" x2="1886.315789473684" y2="808.4210526315788" stroke-linecap="square" stroke-width="4" stroke="#d7b8ff"/><line x1="1886.315789473684" y1="808.4210526315788" x2="2021.052631578947" y2="943.157894736842" stroke-linecap="square" stroke-width="4" stroke="#dfc6ff"/><line x1="2021.052631578947" y1="808.4210526315788" x2="2155.7894736842104" y2="943.157894736842" stroke-linecap="square" stroke-width="4" stroke="#e7d5ff"/><line x1="2155.7894736842104" y1="808.4210526315788" x2="2290.5263157894738" y2="943.157894736842" stroke-linecap="square" stroke-width="4" stroke="#efe3ff"/><line x1="2290.5263157894738" y1="808.4210526315788" x2="2425.263157894737" y2="943.157894736842" stroke-linecap="square" stroke-width="4" stroke="#f7f1ff"/><line x1="2425.263157894737" y1="808.4210526315788" x2="2560.0000000000005" y2="943.157894736842" stroke-linecap="square" stroke-width="4" stroke="#ffffff"/><line x1="0" y1="943.157894736842" x2="134.73684210526315" y2="1077.8947368421052" stroke-linecap="square" stroke-width="4" stroke="#7000ff"/><line x1="134.73684210526315" y1="943.157894736842" x2="269.4736842105263" y2="1077.8947368421052" stroke-linecap="square" stroke-width="4" stroke="#780eff"/><line x1="269.4736842105263" y1="1077.8947368421052" x2="404.2105263157895" y2="943.157894736842" stroke-linecap="square" stroke-width="4" stroke="#801cff"/><line x1="404.2105263157895" y1="943.157894736842" x2="538.9473684210526" y2="1077.8947368421052" stroke-linecap="square" stroke-width="4" stroke="#882bff"/><line x1="538.9473684210526" y1="943.157894736842" x2="673.6842105263157" y2="1077.8947368421052" stroke-linecap="square" stroke-width="4" stroke="#9039ff"/><line x1="673.6842105263157" y1="1077.8947368421052" x2="808.4210526315788" y2="943.157894736842" stroke-linecap="square" stroke-width="4" stroke="#9847ff"/><line x1="808.4210526315788" y1="943.157894736842" x2="943.157894736842" y2="1077.8947368421052" stroke-linecap="square" stroke-width="4" stroke="#a055ff"/><line x1="943.157894736842" y1="1077.8947368421052" x2="1077.8947368421052" y2="943.157894736842" stroke-linecap="square" stroke-width="4" stroke="#a863ff"/><line x1="1077.8947368421052" y1="943.157894736842" x2="1212.6315789473683" y2="1077.8947368421052" stroke-linecap="square" stroke-width="4" stroke="#b071ff"/><line x1="1212.6315789473683" y1="1077.8947368421052" x2="1347.3684210526314" y2="943.157894736842" stroke-linecap="square" stroke-width="4" stroke="#b880ff"/><line x1="1347.3684210526314" y1="943.157894736842" x2="1482.1052631578946" y2="1077.8947368421052" stroke-linecap="square" stroke-width="4" stroke="#bf8eff"/><line x1="1482.1052631578946" y1="943.157894736842" x2="1616.8421052631577" y2="1077.8947368421052" stroke-linecap="square" stroke-width="4" stroke="#c79cff"/><line x1="1616.8421052631577" y1="943.157894736842" x2="1751.5789473684208" y2="1077.8947368421052" stroke-linecap="square" stroke-width="4" stroke="#cfaaff"/><line x1="1751.5789473684208" y1="943.157894736842" x2="1886.315789473684" y2="1077.8947368421052" stroke-linecap="square" stroke-width="4" stroke="#d7b8ff"/><line x1="1886.315789473684" y1="943.157894736842" x2="2021.052631578947" y2="1077.8947368421052" stroke-linecap="square" stroke-width="4" stroke="#dfc6ff"/><line x1="2021.052631578947" y1="1077.8947368421052" x2="2155.7894736842104" y2="943.157894736842" stroke-linecap="square" stroke-width="4" stroke="#e7d5ff"/><line x1="2155.7894736842104" y1="943.157894736842" x2="2290.5263157894738" y2="1077.8947368421052" stroke-linecap="square" stroke-width="4" stroke="#efe3ff"/><line x1="2290.5263157894738" y1="1077.8947368421052" x2="2425.263157894737" y2="943.157894736842" stroke-linecap="square" stroke-width="4" stroke="#f7f1ff"/><line x1="2425.263157894737" y1="943.157894736842" x2="2560.0000000000005" y2="1077.8947368421052" stroke-linecap="square" stroke-width="4" stroke="#ffffff"/><line x1="0" y1="1212.6315789473683" x2="134.73684210526315" y2="1077.8947368421052" stroke-linecap="square" stroke-width="4" stroke="#7000ff"/><line x1="134.73684210526315" y1="1077.8947368421052" x2="269.4736842105263" y2="1212.6315789473683" stroke-linecap="square" stroke-width="4" stroke="#780eff"/><line x1="269.4736842105263" y1="1077.8947368421052" x2="404.2105263157895" y2="1212.6315789473683" stroke-linecap="square" stroke-width="4" stroke="#801cff"/><line x1="404.2105263157895" y1="1077.8947368421052" x2="538.9473684210526" y2="1212.6315789473683" stroke-linecap="square" stroke-width="4" stroke="#882bff"/><line x1="538.9473684210526" y1="1212.6315789473683" x2="673.6842105263157" y2="1077.8947368421052" stroke-linecap="square" stroke-width="4" stroke="#9039ff"/><line x1="673.6842105263157" y1="1212.6315789473683" x2="808.4210526315788" y2="1077.8947368421052" stroke-linecap="square" stroke-width="4" stroke="#9847ff"/><line x1="808.4210526315788" y1="1077.8947368421052" x2="943.157894736842" y2="1212.6315789473683" stroke-linecap="square" stroke-width="4" stroke="#a055ff"/><line x1="943.157894736842" y1="1077.8947368421052" x2="1077.8947368421052" y2="1212.6315789473683" stroke-linecap="square" stroke-width="4" stroke="#a863ff"/><line x1="1077.8947368421052" y1="1212.6315789473683" x2="1212.6315789473683" y2="1077.8947368421052" stroke-linecap="square" stroke-width="4" stroke="#b071ff"/><line x1="1212.6315789473683" y1="1212.6315789473683" x2="1347.3684210526314" y2="1077.8947368421052" stroke-linecap="square" stroke-width="4" stroke="#b880ff"/><line x1="1347.3684210526314" y1="1077.8947368421052" x2="1482.1052631578946" y2="1212.6315789473683" stroke-linecap="square" stroke-width="4" stroke="#bf8eff"/><line x1="1482.1052631578946" y1="1077.8947368421052" x2="1616.8421052631577" y2="1212.6315789473683" stroke-linecap="square" stroke-width="4" stroke="#c79cff"/><line x1="1616.8421052631577" y1="1077.8947368421052" x2="1751.5789473684208" y2="1212.6315789473683" stroke-linecap="square" stroke-width="4" stroke="#cfaaff"/><line x1="1751.5789473684208" y1="1077.8947368421052" x2="1886.315789473684" y2="1212.6315789473683" stroke-linecap="square" stroke-width="4" stroke="#d7b8ff"/><line x1="1886.315789473684" y1="1077.8947368421052" x2="2021.052631578947" y2="1212.6315789473683" stroke-linecap="square" stroke-width="4" stroke="#dfc6ff"/><line x1="2021.052631578947" y1="1077.8947368421052" x2="2155.7894736842104" y2="1212.6315789473683" stroke-linecap="square" stroke-width="4" stroke="#e7d5ff"/><line x1="2155.7894736842104" y1="1212.6315789473683" x2="2290.5263157894738" y2="1077.8947368421052" stroke-linecap="square" stroke-width="4" stroke="#efe3ff"/><line x1="2290.5263157894738" y1="1077.8947368421052" x2="2425.263157894737" y2="1212.6315789473683" stroke-linecap="square" stroke-width="4" stroke="#f7f1ff"/><line x1="2425.263157894737" y1="1212.6315789473683" x2="2560.0000000000005" y2="1077.8947368421052" stroke-linecap="square" stroke-width="4" stroke="#ffffff"/><line x1="0" y1="1347.3684210526314" x2="134.73684210526315" y2="1212.6315789473683" stroke-linecap="square" stroke-width="4" stroke="#7000ff"/><line x1="134.73684210526315" y1="1347.3684210526314" x2="269.4736842105263" y2="1212.6315789473683" stroke-linecap="square" stroke-width="4" stroke="#780eff"/><line x1="269.4736842105263" y1="1347.3684210526314" x2="404.2105263157895" y2="1212.6315789473683" stroke-linecap="square" stroke-width="4" stroke="#801cff"/><line x1="404.2105263157895" y1="1347.3684210526314" x2="538.9473684210526" y2="1212.6315789473683" stroke-linecap="square" stroke-width="4" stroke="#882bff"/><line x1="538.9473684210526" y1="1347.3684210526314" x2="673.6842105263157" y2="1212.6315789473683" stroke-linecap="square" stroke-width="4" stroke="#9039ff"/><line x1="673.6842105263157" y1="1347.3684210526314" x2="808.4210526315788" y2="1212.6315789473683" stroke-linecap="square" stroke-width="4" stroke="#9847ff"/><line x1="808.4210526315788" y1="1347.3684210526314" x2="943.157894736842" y2="1212.6315789473683" stroke-linecap="square" stroke-width="4" stroke="#a055ff"/><line x1="943.157894736842" y1="1347.3684210526314" x2="1077.8947368421052" y2="1212.6315789473683" stroke-linecap="square" stroke-width="4" stroke="#a863ff"/><line x1="1077.8947368421052" y1="1347.3684210526314" x2="1212.6315789473683" y2="1212.6315789473683" stroke-linecap="square" stroke-width="4" stroke="#b071ff"/><line x1="1212.6315789473683" y1="1347.3684210526314" x2="1347.3684210526314" y2="1212.6315789473683" stroke-linecap="square" stroke-width="4" stroke="#b880ff"/><line x1="1347.3684210526314" y1="1212.6315789473683" x2="1482.1052631578946" y2="1347.3684210526314" stroke-linecap="square" stroke-width="4" stroke="#bf8eff"/><line x1="1482.1052631578946" y1="1347.3684210526314" x2="1616.8421052631577" y2="1212.6315789473683" stroke-linecap="square" stroke-width="4" stroke="#c79cff"/><line x1="1616.8421052631577" y1="1347.3684210526314" x2="1751.5789473684208" y2="1212.6315789473683" stroke-linecap="square" stroke-width="4" stroke="#cfaaff"/><line x1="1751.5789473684208" y1="1212.6315789473683" x2="1886.315789473684" y2="1347.3684210526314" stroke-linecap="square" stroke-width="4" stroke="#d7b8ff"/><line x1="1886.315789473684" y1="1212.6315789473683" x2="2021.052631578947" y2="1347.3684210526314" stroke-linecap="square" stroke-width="4" stroke="#dfc6ff"/><line x1="2021.052631578947" y1="1212.6315789473683" x2="2155.7894736842104" y2="1347.3684210526314" stroke-linecap="square" stroke-width="4" stroke="#e7d5ff"/><line x1="2155.7894736842104" y1="1212.6315789473683" x2="2290.5263157894738" y2="1347.3684210526314" stroke-linecap="square" stroke-width="4" stroke="#efe3ff"/><line x1="2290.5263157894738" y1="1212.6315789473683" x2="2425.263157894737" y2="1347.3684210526314" stroke-linecap="square" stroke-width="4" stroke="#f7f1ff"/><line x1="2425.263157894737" y1="1347.3684210526314" x2="2560.0000000000005" y2="1212.6315789473683" stroke-linecap="square" stroke-width="4" stroke="#ffffff"/><line x1="0" y1="1482.1052631578946" x2="134.73684210526315" y2="1347.3684210526314" stroke-linecap="square" stroke-width="4" stroke="#7000ff"/><line x1="134.73684210526315" y1="1347.3684210526314" x2="269.4736842105263" y2="1482.1052631578946" stroke-linecap="square" stroke-width="4" stroke="#780eff"/><line x1="269.4736842105263" y1="1482.1052631578946" x2="404.2105263157895" y2="1347.3684210526314" stroke-linecap="square" stroke-width="4" stroke="#801cff"/><line x1="404.2105263157895" y1="1347.3684210526314" x2="538.9473684210526" y2="1482.1052631578946" stroke-linecap="square" stroke-width="4" stroke="#882bff"/><line x1="538.9473684210526" y1="1482.1052631578946" x2="673.6842105263157" y2="1347.3684210526314" stroke-linecap="square" stroke-width="4" stroke="#9039ff"/><line x1="673.6842105263157" y1="1347.3684210526314" x2="808.4210526315788" y2="1482.1052631578946" stroke-linecap="square" stroke-width="4" stroke="#9847ff"/><line x1="808.4210526315788" y1="1347.3684210526314" x2="943.157894736842" y2="1482.1052631578946" stroke-linecap="square" stroke-width="4" stroke="#a055ff"/><line x1="943.157894736842" y1="1347.3684210526314" x2="1077.8947368421052" y2="1482.1052631578946" stroke-linecap="square" stroke-width="4" stroke="#a863ff"/><line x1="1077.8947368421052" y1="1347.3684210526314" x2="1212.6315789473683" y2="1482.1052631578946" stroke-linecap="square" stroke-width="4" stroke="#b071ff"/><line x1="1212.6315789473683" y1="1482.1052631578946" x2="1347.3684210526314" y2="1347.3684210526314" stroke-linecap="square" stroke-width="4" stroke="#b880ff"/><line x1="1347.3684210526314" y1="1482.1052631578946" x2="1482.1052631578946" y2="1347.3684210526314" stroke-linecap="square" stroke-width="4" stroke="#bf8eff"/><line x1="1482.1052631578946" y1="1347.3684210526314" x2="1616.8421052631577" y2="1482.1052631578946" stroke-linecap="square" stroke-width="4" stroke="#c79cff"/><line x1="1616.8421052631577" y1="1482.1052631578946" x2="1751.5789473684208" y2="1347.3684210526314" stroke-linecap="square" stroke-width="4" stroke="#cfaaff"/><line x1="1751.5789473684208" y1="1482.1052631578946" x2="1886.315789473684" y2="1347.3684210526314" stroke-linecap="square" stroke-width="4" stroke="#d7b8ff"/><line x1="1886.315789473684" y1="1347.3684210526314" x2="2021.052631578947" y2="1482.1052631578946" stroke-linecap="square" stroke-width="4" stroke="#dfc6ff"/><line x1="2021.052631578947" y1="1347.3684210526314" x2="2155.7894736842104" y2="1482.1052631578946" stroke-linecap="square" stroke-width="4" stroke="#e7d5ff"/><line x1="2155.7894736842104" y1="1347.3684210526314" x2="2290.5263157894738" y2="1482.1052631578946" stroke-linecap="square" stroke-width="4" stroke="#efe3ff"/><line x1="2290.5263157894738" y1="1482.1052631578946" x2="2425.263157894737" y2="1347.3684210526314" stroke-linecap="square" stroke-width="4" stroke="#f7f1ff"/><line x1="2425.263157894737" y1="1482.1052631578946" x2="2560.0000000000005" y2="1347.3684210526314" stroke-linecap="square" stroke-width="4" stroke="#ffffff"/><line x1="0" y1="1616.8421052631577" x2="134.73684210526315" y2="1482.1052631578946" stroke-linecap="square" stroke-width="4" stroke="#7000ff"/><line x1="134.73684210526315" y1="1482.1052631578946" x2="269.4736842105263" y2="1616.8421052631577" stroke-linecap="square" stroke-width="4" stroke="#780eff"/><line x1="269.4736842105263" y1="1616.8421052631577" x2="404.2105263157895" y2="1482.1052631578946" stroke-linecap="square" stroke-width="4" stroke="#801cff"/><line x1="404.2105263157895" y1="1616.8421052631577" x2="538.9473684210526" y2="1482.1052631578946" stroke-linecap="square" stroke-width="4" stroke="#882bff"/><line x1="538.9473684210526" y1="1482.1052631578946" x2="673.6842105263157" y2="1616.8421052631577" stroke-linecap="square" stroke-width="4" stroke="#9039ff"/><line x1="673.6842105263157" y1="1482.1052631578946" x2="808.4210526315788" y2="1616.8421052631577" stroke-linecap="square" stroke-width="4" stroke="#9847ff"/><line x1="808.4210526315788" y1="1482.1052631578946" x2="943.157894736842" y2="1616.8421052631577" stroke-linecap="square" stroke-width="4" stroke="#a055ff"/><line x1="943.157894736842" y1="1616.8421052631577" x2="1077.8947368421052" y2="1482.1052631578946" stroke-linecap="square" stroke-width="4" stroke="#a863ff"/><line x1="1077.8947368421052" y1="1482.1052631578946" x2="1212.6315789473683" y2="1616.8421052631577" stroke-linecap="square" stroke-width="4" stroke="#b071ff"/><line x1="1212.6315789473683" y1="1482.1052631578946" x2="1347.3684210526314" y2="1616.8421052631577" stroke-linecap="square" stroke-width="4" stroke="#b880ff"/><line x1="1347.3684210526314" y1="1482.1052631578946" x2="1482.1052631578946" y2="1616.8421052631577" stroke-linecap="square" stroke-width="4" stroke="#bf8eff"/><line x1="1482.1052631578946" y1="1616.8421052631577" x2="1616.8421052631577" y2="1482.1052631578946" stroke-linecap="square" stroke-width="4" stroke="#c79cff"/><line x1="1616.8421052631577" y1="1482.1052631578946" x2="1751.5789473684208" y2="1616.8421052631577" stroke-linecap="square" stroke-width="4" stroke="#cfaaff"/><line x1="1751.5789473684208" y1="1616.8421052631577" x2="1886.315789473684" y2="1482.1052631578946" stroke-linecap="square" stroke-width="4" stroke="#d7b8ff"/><line x1="1886.315789473684" y1="1482.1052631578946" x2="2021.052631578947" y2="1616.8421052631577" stroke-linecap="square" stroke-width="4" stroke="#dfc6ff"/><line x1="2021.052631578947" y1="1616.8421052631577" x2="2155.7894736842104" y2="1482.1052631578946" stroke-linecap="square" stroke-width="4" stroke="#e7d5ff"/><line x1="2155.7894736842104" y1="1616.8421052631577" x2="2290.5263157894738" y2="1482.1052631578946" stroke-linecap="square" stroke-width="4" stroke="#efe3ff"/><line x1="2290.5263157894738" y1="1616.8421052631577" x2="2425.263157894737" y2="1482.1052631578946" stroke-linecap="square" stroke-width="4" stroke="#f7f1ff"/><line x1="2425.263157894737" y1="1482.1052631578946" x2="2560.0000000000005" y2="1616.8421052631577" stroke-linecap="square" stroke-width="4" stroke="#ffffff"/></svg>