<svg width="553" height="197" viewBox="0 0 553 197" fill="none" xmlns="http://www.w3.org/3000/svg">
<path d="M132.104 6.07199C133.128 4.70665 136.371 3.42666 141.832 2.23199C147.464 0.866659 152.755 0.18399 157.704 0.18399C162.653 0.18399 166.749 0.866659 169.992 2.23199L144.904 195H110.088L120.072 108.472L116.744 109.496C101.043 114.104 86.792 118.627 73.992 123.064L70.408 151.224C66.312 181.432 52.1467 196.536 27.912 196.536C19.208 196.536 12.4667 193.976 7.688 188.856C2.90933 183.565 0.52 176.824 0.52 168.632C0.52 150.371 13.4053 133.901 39.176 119.224L52.232 8.12C55.4747 5.90133 59.7413 4.02399 65.032 2.48799C70.3227 0.951991 75.4427 0.18399 80.392 0.18399C85.3413 0.18399 88.584 0.269323 90.12 0.439987L76.808 102.328C87.2187 98.5733 100.36 94.5627 116.232 90.296L122.376 88.76L132.104 6.07199ZM18.44 164.792C18.44 170.253 20.9147 172.984 25.864 172.984C28.5947 172.984 30.3867 172.216 31.24 170.68C32.0933 168.973 32.6907 167.608 33.032 166.584C33.544 165.389 33.9707 163.853 34.312 161.976C34.6533 160.099 34.9093 158.477 35.08 157.112C35.2507 155.576 35.4213 153.613 35.592 151.224C35.7627 148.835 35.9333 146.957 36.104 145.592L36.616 141.752C24.4987 150.115 18.44 157.795 18.44 164.792ZM250.02 71.864C265.721 71.864 278.777 76.8987 289.188 86.968C299.769 97.0373 305.06 109.325 305.06 123.832C305.06 145.848 298.575 163.512 285.604 176.824C272.804 189.965 257.273 196.536 239.012 196.536C220.751 196.536 206.244 191.331 195.492 180.92C184.911 170.509 179.62 157.624 179.62 142.264C179.62 120.76 186.191 103.693 199.332 91.064C212.644 78.264 229.54 71.864 250.02 71.864ZM244.9 92.6C236.879 92.6 230.137 97.208 224.676 106.424C219.215 115.64 216.228 127.245 215.716 141.24C215.716 151.139 217.679 159.331 221.604 165.816C225.7 172.301 231.844 175.544 240.036 175.544C248.228 175.544 255.055 171.021 260.516 161.976C266.148 152.931 268.964 142.605 268.964 131C268.964 119.395 267.001 110.179 263.076 103.352C259.151 96.184 253.092 92.6 244.9 92.6ZM350.252 196.792C339.841 196.792 331.649 193.891 325.676 188.088C319.703 182.115 316.716 174.008 316.716 163.768C316.716 161.037 321.324 120.504 330.54 42.168C332.929 22.0293 339.329 9.31466 349.74 4.02399C354.519 1.46399 360.236 0.18399 366.892 0.18399C389.42 0.18399 400.684 10.5947 400.684 31.416C400.684 33.1227 400.599 34.9147 400.428 36.792C398.721 59.6613 384.385 82.9573 357.42 106.68C356.567 115.043 355.628 123.149 354.604 131C352.556 148.579 351.532 158.307 351.532 160.184C351.532 169.059 355.372 173.496 363.052 173.496C371.415 173.496 379.18 168.717 386.348 159.16C393.687 149.432 399.319 137.059 403.244 122.04C404.78 122.552 406.913 124.003 409.644 126.392C412.375 128.611 414.252 130.573 415.276 132.28C412.545 146.445 406.401 160.013 396.844 172.984C392.065 179.64 386.007 185.101 378.668 189.368C370.305 194.317 360.833 196.792 350.252 196.792ZM360.236 81.08C375.937 63.8427 383.788 48.3973 383.788 34.744C383.788 26.552 380.716 22.456 374.572 22.456C370.647 22.7973 368.001 25.3573 366.636 30.136C365.441 34.9147 364.247 42.68 363.052 53.432C362.028 64.184 361.345 70.84 361.004 73.4L360.236 81.08ZM508.118 196.28C492.417 196.28 482.006 190.819 476.886 179.896C468.011 190.989 456.577 196.536 442.582 196.536C428.758 196.536 417.067 191.843 407.51 182.456C398.123 173.069 393.43 160.696 393.43 145.336C393.43 122.979 400.001 105.144 413.142 91.832C426.283 78.52 442.923 71.864 463.062 71.864C463.574 71.864 464.086 71.864 464.598 71.864C473.131 71.864 480.982 73.3147 488.15 76.216C492.758 73.3147 498.305 71.864 504.79 71.864C511.446 71.864 516.225 72.7173 519.126 74.424C517.59 87.0533 515.969 99.512 514.262 111.8C512.555 123.917 511.361 132.536 510.678 137.656C509.142 149.261 508.374 157.624 508.374 162.744C508.374 169.571 511.105 172.984 516.566 172.984C520.833 172.984 525.355 170.168 530.134 164.536C534.913 158.733 539.094 149.688 542.678 137.4C547.627 141.837 551.041 146.787 552.918 152.248C547.969 168.461 541.313 179.896 532.95 186.552C524.587 193.037 516.31 196.28 508.118 196.28ZM466.902 91.832C455.979 91.832 447.275 96.0133 440.79 104.376C434.475 112.568 430.721 124.856 429.526 141.24C429.355 142.776 429.27 144.227 429.27 145.592C429.27 153.955 431.233 160.611 435.158 165.56C439.254 170.509 444.459 172.984 450.774 172.984C461.526 172.984 469.633 165.389 475.094 150.2L481.238 94.904C476.289 92.856 471.51 91.832 466.902 91.832Z" fill="white"/>
</svg>
